<?xml version="1.0" encoding="UTF-8"?>
<svg xmlns="http://www.w3.org/2000/svg" version="1.1" viewBox="0 0 8.97 8.3">
  <defs>
    <style>
      .cls-1, .cls-2, .cls-3 {
        fill: none;
        stroke: #f9f4ed;
        stroke-width: .75px;
      }

      .cls-1, .cls-3 {
        stroke-miterlimit: 2.61;
      }

      .cls-4 {
        fill: #708596;
        fill-rule: evenodd;
      }

      .cls-2 {
        stroke-miterlimit: 10;
      }

      .cls-3 {
        display: none;
      }
    </style>
  </defs>
  <!-- Generator: Adobe Illustrator 28.7.7, SVG Export Plug-In . SVG Version: 1.2.0 Build 194)  -->
  <g>
    <g id="Layer_1">
      <g>
        <path class="cls-1" d="M1.15,1.07h6.67c.43,0,.77.35.77.77v5.3c0,.43-.35.77-.77.77H1.15c-.43,0-.77-.35-.77-.77V1.84c0-.43.35-.77.77-.77h0Z"/>
        <g>
          <path class="cls-4" d="M1.98.38h.8v1.33c0,.22-.18.4-.4.4h0c-.22,0-.4-.18-.4-.4V.38h0Z"/>
          <path class="cls-2" d="M1.98.38h.8v1.33c0,.22-.18.4-.4.4h0c-.22,0-.4-.18-.4-.4V.38h0Z"/>
        </g>
        <g>
          <path class="cls-4" d="M6.19.38h.8v1.33c0,.22-.18.4-.4.4h0c-.22,0-.4-.18-.4-.4V.38h0Z"/>
          <path class="cls-2" d="M6.19.38h.8v1.33c0,.22-.18.4-.4.4h0c-.22,0-.4-.18-.4-.4V.38h0Z"/>
        </g>
        <path class="cls-3" d="M.38,3.05h8.22M1.2,3.68v1.11h1.11v-.43M3.01,3.68v1.11h1.11v-.43M4.81,3.68v1.11h1.11v-.43M6.61,3.68v1.11h1.11v-.43M1.2,5.65v1.11h1.11v-.43M3.01,5.65v1.11h1.11v-.43M4.81,5.65v1.11h1.11v-.43M6.61,5.65v1.11h1.11v-.43"/>
      </g>
    </g>
  </g>
</svg>