<?xml version="1.0" encoding="UTF-8"?>
<svg id="Layer_1" data-name="Layer 1" xmlns="http://www.w3.org/2000/svg" version="1.1" viewBox="0 0 64 64">
  <defs>
    <style>
      .cls-1 {
        fill: #6f8596;
      }

      .cls-1, .cls-2 {
        stroke-width: 0px;
      }

      .cls-2 {
        fill: #f8f3ed;
      }
    </style>
  </defs>
  <rect class="cls-1" x="0" width="64" height="64"/>
  <path class="cls-2" d="M17.1,40.3v-21.9c0-3-1.4-3.7-3.9-3.7v-.8h6.2l13.8,27,13.4-27h6.9v.8c-3.1,0-4.2.6-4.2,6v19.4c0,5.3.9,5.9,4.2,5.9v.8h-11.1v-.8c3.3,0,4.2-.6,4.2-6v-23.6l-14.2,28.5h-.3l-14-27.3v22.8c0,4,1.3,5.6,3.8,5.6v.8h-8.9v-.8c2.5,0,3.9-1.6,3.9-5.6Z"/>
</svg>